<svg class="canvas" viewBox="0 0 1920 1080" preserveAspectRatio="xMaxYMid slice"
    xmlns="http://www.w3.org/2000/svg" version="1.1"
    xmlns:xlink="http://www.w3.org/1999/xlink"
    xmlns:svgjs="http://svgjs.com/svgjs">
    <rect width="1920" height="1080" fill="hsl(142, 65%, 15%)"></rect>
    <defs>
        <linearGradient x1="0.5" y1="0" x2="0" y2="1" id="SvgjsLinearGradient1259">
            <stop stop-color="#c4eee4" offset="0"></stop>
            <stop stop-color="#4d6bcb" offset="0.1"></stop>
        </linearGradient>
        <linearGradient x1="0.5" y1="0" x2="0" y2="1" id="SvgjsLinearGradient1260">
            <stop stop-color="#c4eee4" offset="0"></stop>
            <stop stop-color="#4d6bcb" offset="0.22857142857142856"></stop>
        </linearGradient>
        <linearGradient x1="0.5" y1="0" x2="0" y2="1" id="SvgjsLinearGradient1261">
            <stop stop-color="#c4eed3" offset="0"></stop>
            <stop stop-color="#4d9dcb" offset="0.3571428571428571"></stop>
        </linearGradient>
        <linearGradient x1="0.5" y1="0" x2="0" y2="1" id="SvgjsLinearGradient1262">
            <stop stop-color="#c0f2f0" offset="0"></stop>
            <stop stop-color="#4247d7" offset="0.48571428571428565"></stop>
        </linearGradient>
        <linearGradient x1="0.5" y1="0" x2="0" y2="1" id="SvgjsLinearGradient1263">
            <stop stop-color="#c0f2dc" offset="0"></stop>
            <stop stop-color="#4282d7" offset="0.6142857142857142"></stop>
        </linearGradient>
        <linearGradient x1="0.5" y1="0" x2="0" y2="1" id="SvgjsLinearGradient1264">
            <stop stop-color="#c0f2f0" offset="0"></stop>
            <stop stop-color="#4247d7" offset="0.7428571428571429"></stop>
        </linearGradient>
        <linearGradient x1="0.5" y1="0" x2="0" y2="1" id="SvgjsLinearGradient1265">
            <stop stop-color="#c0f2e6" offset="0"></stop>
            <stop stop-color="#4264d7" offset="0.8714285714285713"></stop>
        </linearGradient>
    </defs>
    <path d="M0,-524.2052461246363C54.66656014418114,-507.7958653349302,217.5780508714442,-464.6204019137406,327.9993608650868,-425.7489613863996C438.42067085872947,-386.8775208590587,553.0868401516291,-324.11611512139746,662.5278599618558,-290.97660296059064C771.9688797720826,-257.8370907997838,889.1251955613001,-250.68329798654403,984.6454797264477,-226.91188842155867C1080.1657638915954,-203.1404788565733,1126.2965292414415,-167.82347293964798,1235.6495649527415,-148.3481455706785C1345.0026006640414,-128.872818201709,1526.7052881530376,-137.41707411541537,1640.7636939942474,-110.05992420774169C1754.8220998354573,-82.702774300068,1873.4606156657078,-5.181025805153926,1920,15.794753875363625L 1920 1080 L 0 1080 Z" fill="url(#SvgjsLinearGradient1259)"></path>
    <path d="M0,-405.9478716559595C59.705620631734035,-385.83894667887216,256.6675032457373,-322.1366195878547,358.2337237904042,-285.29432179343553C459.79994433507113,-248.45202399901638,505.9189437673486,-216.76959723783384,609.3973232680016,-184.89408488944449C712.8757027686547,-153.01857254105514,871.9474475651821,-113.43974510527768,979.1040007943225,-94.04124770309936C1086.2605540234629,-74.64275030092104,1142.6909924129952,-92.98493715417602,1252.3366426428438,-68.50310047637458C1361.9822928726924,-44.021263798573145,1525.700675947221,16.70961517935433,1636.9779021734137,52.849772363709235C1748.2551283996063,88.98992954806414,1872.8296503622355,132.42316425208057,1920,148.33784262975485L 1920 1080 L 0 1080 Z" fill="url(#SvgjsLinearGradient1260)"></path>
    <path d="M0,-331.49012717392725C53.953206540165404,-320.728954401721,215.1909523077337,-293.8098479526379,323.7192392409924,-266.9230905406897C432.2475261742511,-240.03633312874157,541.5261931272244,-210.0522971875643,651.1697215995522,-170.16958270223836C760.81325007188,-130.2868682169124,879.2701762974158,-67.22225193464396,981.5804100749593,-27.626803628733988C1083.890643852503,11.968644677175995,1164.52981435223,35.057872622024256,1265.0311242648136,67.40310713322154C1365.5324341773971,99.74834164441882,1475.426790261263,138.16490439440307,1584.5882695504608,166.44460343844972C1693.7497488396587,194.72430248249637,1864.098044925077,225.30851840432612,1920,237.0813013975014L 1920 1080 L 0 1080 Z" fill="url(#SvgjsLinearGradient1261)"></path>
    <path d="M0,-159.81415320822566C77.06750841183735,-126.5958877260471,311.4987977604187,-14.105735844411946,462.4050504710241,39.495439684845735C613.3113031816295,93.09661521410342,734.1797503077826,117.70126426778859,905.4375162636322,161.79289996732044C1076.695282219482,205.8845356668523,1320.8578989167272,260.5035722684374,1489.951646206122,304.04525388203683C1659.0453934955167,347.5869354956363,1848.325274367687,403.2100336877705,1920,423.0429896489172L 1920 1080 L 0 1080 Z" fill="url(#SvgjsLinearGradient1262)"></path>
    <path d="M0,-30.15599833411784C48.99383835632357,-12.607454769710372,196.79298902750588,52.921896126067665,293.9630301379414,75.13526305232696C391.13307124837695,97.34862997858626,499.2817270934062,71.54322567617723,583.0202466626132,103.12420322343792C666.7587662318202,134.7051807706986,712.1911308935198,236.5155752458099,796.3941475531835,264.62112833589106C880.5971642128472,292.7266814259722,990.7196672873301,245.05591797548536,1088.2383466205954,271.7575217639248C1185.7570259538606,298.45912555236424,1290.1042393924752,386.4603006505149,1381.506223552775,424.8307510665277C1472.908207713075,463.20120148254045,1546.901288841191,478.28753963629964,1636.6502515823952,501.9802242600016C1726.3992143235994,525.6729088837035,1872.7750419303993,556.1524197172831,1920,566.9868588087394L 1920 1080 L 0 1080 Z" fill="url(#SvgjsLinearGradient1263)"></path>
    <path d="M0,55.76386910403497C49.39284787684329,62.499231487434045,202.44466936439335,59.50916346017255,296.35708726105975,96.17604340442944C390.26950515772614,132.84292334868633,468.4496462646159,248.2083889135779,563.4745073799984,275.7651487695763C658.4993684953808,303.3219086255747,775.5369575287567,245.1500465934424,866.5062539533544,261.5166025404198C957.4755503779521,277.88315848739717,1019.4097895152611,334.4019323808678,1109.2902859275848,373.9644844514406C1199.1707823399086,413.5270365220135,1310.7656758186165,469.6170017819148,1405.7892324272966,498.8919149638568C1500.8127890359767,528.1668281457987,1593.729830984215,521.5638759483008,1679.4316255796655,549.6139635430925C1765.133420175116,577.6640511378841,1879.9052709299442,647.5960277010207,1920,667.1924405326064L 1920 1080 L 0 1080 Z" fill="url(#SvgjsLinearGradient1264)"></path>
    <path d="M0,266.7049030048659C50.020864985694296,286.968175473737,187.59929780575027,348.2430969784557,300.1251899141658,388.2845378180925C412.6510820225813,428.32597865772925,566.8842258845222,478.8116719104372,675.155352650493,506.9535480426866C783.4264794164638,535.0954241749359,855.9396130280551,531.8386124487309,949.7519505099907,557.1357946115885C1043.5642879919264,582.432976774446,1128.7756503902924,628.4088110801257,1238.0293775421069,658.7366410198321C1347.2831046939214,689.0644709595384,1491.612543011229,700.1556829666065,1605.274313420878,739.1027742498264C1718.9360838305267,778.0498655330464,1867.5457189034796,866.8664529742642,1920,892.4191887191517L 1920 1080 L 0 1080 Z" fill="url(#SvgjsLinearGradient1265)"></path>
</svg>