<svg class="canvas" viewBox="0 0 1920 1080" preserveAspectRatio="xMaxYMid slice"
    xmlns="http://www.w3.org/2000/svg" version="1.1"
    xmlns:xlink="http://www.w3.org/1999/xlink"
    xmlns:svgjs="http://svgjs.com/svgjs">
    <rect width="1920" height="1080" fill="hsl(338, 65%, 15%)"></rect>
    <defs>
        <linearGradient x1="0.5" y1="0" x2="0" y2="1" id="SvgjsLinearGradient1021">
            <stop stop-color="#eec4d3" offset="0"></stop>
            <stop stop-color="#cb9d4d" offset="0.1"></stop>
        </linearGradient>
        <linearGradient x1="0.5" y1="0" x2="0" y2="1" id="SvgjsLinearGradient1022">
            <stop stop-color="#eec4cb" offset="0"></stop>
            <stop stop-color="#cbb64d" offset="0.22857142857142856"></stop>
        </linearGradient>
        <linearGradient x1="0.5" y1="0" x2="0" y2="1" id="SvgjsLinearGradient1023">
            <stop stop-color="#eec4dc" offset="0"></stop>
            <stop stop-color="#cb844d" offset="0.3571428571428571"></stop>
        </linearGradient>
        <linearGradient x1="0.5" y1="0" x2="0" y2="1" id="SvgjsLinearGradient1024">
            <stop stop-color="#f2c0d2" offset="0"></stop>
            <stop stop-color="#d7a042" offset="0.48571428571428565"></stop>
        </linearGradient>
        <linearGradient x1="0.5" y1="0" x2="0" y2="1" id="SvgjsLinearGradient1025">
            <stop stop-color="#f2c0e6" offset="0"></stop>
            <stop stop-color="#d76442" offset="0.6142857142857142"></stop>
        </linearGradient>
        <linearGradient x1="0.5" y1="0" x2="0" y2="1" id="SvgjsLinearGradient1026">
            <stop stop-color="#f2c0dc" offset="0"></stop>
            <stop stop-color="#d78242" offset="0.7428571428571429"></stop>
        </linearGradient>
        <linearGradient x1="0.5" y1="0" x2="0" y2="1" id="SvgjsLinearGradient1027">
            <stop stop-color="#f2c0c8" offset="0"></stop>
            <stop stop-color="#d7be42" offset="0.8714285714285713"></stop>
        </linearGradient>
    </defs>
    <path d="M0,-581.9954719587494C78.93801835867608,-563.0033482098527,314.9231589053337,-509.0163333247289,473.6281101520565,-468.04272946536923C632.3330613987793,-427.06912560600955,788.399756230857,-379.09824994450656,952.2297074803367,-336.15384880259137C1116.0596587298164,-293.2094476606762,1295.3127688956579,-259.4027187545184,1456.607817648935,-210.37632261387807C1617.902866402212,-161.34992647323773,1842.767969608156,-70.0589470679375,1920,-41.99547195874938L 1920 1080 L 0 1080 Z" fill="url(#SvgjsLinearGradient1021)"></path>
    <path d="M0,-425.1110092264557C62.745694779959045,-406.6885925545776,245.29531867297544,-348.2912974198892,376.47416867975426,-314.5765091951872C507.6530186865331,-280.86172097048524,664.797452359258,-259.1428988280913,787.0731000406729,-222.82227987824382C909.3487477220878,-186.50166092839635,984.0318300176998,-131.46435790074986,1110.1280547682436,-96.65279549610237C1236.2242795187874,-61.84123309145489,1408.6717910053096,-51.59082220958575,1543.6504485439357,-13.95290545035892C1678.6291060825617,23.685011308867914,1857.2750747573227,105.32010330765569,1920,129.1747050592586L 1920 1080 L 0 1080 Z" fill="url(#SvgjsLinearGradient1022)"></path>
    <path d="M0,-324.9856974124613C66.262566673786,-301.9791818398803,268.4978408409685,-230.11902885371234,397.57540004271596,-186.94660397697533C526.6529592444634,-143.7741791002383,648.7064600532232,-105.52514003947822,774.4653552104847,-65.95114815203927C900.2242503677463,-26.377156264600316,1023.9652270556048,18.506028865041134,1152.1287709862856,50.497347347658376C1280.2923149169665,82.48866583027562,1415.468080625617,93.81536544177938,1543.4466187945693,125.99676274366419C1671.4251569635217,158.17816004554902,1857.2411031324282,223.98756975641675,1920,243.58573115896726L 1920 1080 L 0 1080 Z" fill="url(#SvgjsLinearGradient1023)"></path>
    <path d="M0,-137.78037385775036C75.85752356967541,-110.7829526747621,291.538956379827,-25.174010924858607,455.14514141805245,24.204153240179203C618.7513264562779,73.58231740521701,813.0668414407611,106.4104662182329,981.6371102293523,158.48861113247648C1150.2073790179434,210.56675604672006,1310.1729391878248,288.90832974782137,1466.5667541495993,336.6730227256407C1622.9605691113738,384.43771570346,1844.4277923582665,427.0094779537672,1920,445.0767689993925L 1920 1080 L 0 1080 Z" fill="url(#SvgjsLinearGradient1024)"></path>
    <path d="M0,-25.574767551144078C55.12377882346498,-10.96480170818655,227.92533751706185,22.106144500568703,330.7426729407899,62.08502750660108C433.5600083645179,102.06391051263346,516.0205480214045,176.51998276780978,616.9040125423683,214.29853048505018C717.7874770633321,252.07707820229058,825.9253288808079,266.88603693346045,936.0434600665728,288.7563138100435C1046.1615912523378,310.6265906866265,1171.7445539948762,321.8662174961685,1277.612799656958,345.52019174454824C1383.4810453190398,369.174165992928,1464.1884006485561,393.00550965912805,1571.2529340390631,430.6801593003222C1678.3174674295701,468.35480894151635,1861.8754890065106,548.0867678764813,1920,571.5680895917131L 1920 1080 L 0 1080 Z" fill="url(#SvgjsLinearGradient1025)"></path>
    <path d="M0,119.25054867188163C77.88879042056048,149.13248788048642,302.0782531965665,242.20026780693308,467.3327425233629,298.5421839235103C632.5872318501594,354.88410004008756,830.1618484647692,415.9119082180536,991.5269359607784,457.302045371345C1152.8920234567877,498.6921825246364,1280.7777568262145,501.3201610550739,1435.5232674994181,546.8830068432586C1590.2687781726218,592.4458526314432,1839.2538779165698,700.0464345575873,1920,730.679120100453L 1920 1080 L 0 1080 Z" fill="url(#SvgjsLinearGradient1026)"></path>
    <path d="M0,237.49483304094773C62.585930312349795,259.6242311663835,243.4179999406047,327.2059350138125,375.51558187409876,370.2712217935622C507.61316380759285,413.33650857331185,661.7999977108578,458.9601024524497,792.5854916009644,495.8865537194458C923.3709854910709,532.8130049864419,1038.4332116033627,547.6962955176575,1160.228545214738,591.829929395539C1282.0238788261133,635.9635632734205,1396.728917471673,715.4584920934524,1523.3574932692165,760.6883569867348C1649.9860690667601,805.9182218800172,1853.8929155448695,846.1223251271504,1920,863.2091187552335L 1920 1080 L 0 1080 Z" fill="url(#SvgjsLinearGradient1027)"></path>
</svg>